<svg id="Clean" xmlns="http://www.w3.org/2000/svg" viewBox="0 0 75 75"><defs><style>.cls-1{fill:none;stroke:#000;stroke-miterlimit:10;stroke-width:3px;}</style></defs><title>Icons Template</title><rect class="cls-1" x="30.63" y="9.86" width="11.83" height="27.5" rx="5.92" ry="5.92"/><path d="M19.09,32.74c.43,9.44,7.67,17.46,17.46,17.42s17-7.91,17.46-17.42c.09-1.93-2.91-1.93-3,0-.35,7.78-6.35,14.5-14.46,14.42s-14.1-6.5-14.46-14.42c-.09-1.92-3.09-1.93-3,0Z"/><line class="cls-1" x1="36.54" y1="48.65" x2="36.54" y2="66.44"/><path d="M28.62,67.94H44.46a1.5,1.5,0,0,0,0-3H28.62a1.5,1.5,0,0,0,0,3Z"/></svg>