<svg xmlns="http://www.w3.org/2000/svg" viewBox="0 0 75 75"><defs><style>.cls-1{fill:none;stroke:#000;stroke-linecap:round;stroke-miterlimit:10;stroke-width:2px;}</style></defs><title>Icons Template</title><g id="Add_Location" data-name="Add Location"><g id="Nursing"><path id="_Path_" data-name="&lt;Path&gt;" class="cls-1" d="M50,14.05a9.35,9.35,0,0,1-10.48,7.24,8.24,8.24,0,0,1-6.55-10.15A9.35,9.35,0,0,1,43.41,3.9,8.24,8.24,0,0,1,50,14.05Z"/><path class="cls-1" d="M44.73,55s-3.23,1.13-8,5.65,1.73,12.91,9.3,7.22c19.22-11.47,16-22.74,15.1-27.42-1-5-6.71-13.24-16.9-15.7-13.62-3.28-39.37,11.72-20.36,34"/><ellipse class="cls-1" cx="47.89" cy="45.72" rx="8.33" ry="7.25"/><path class="cls-1" d="M36,67c-3.2,4.24-24,7.76-24-.22,0-1,1.05-1.65,2.27-2.43,8.3-5.26,7-4.57,15.28-7.79C34,53.9,27.3,48.44,27.3,48.44s-4.82-4.77-.32-6a4.84,4.84,0,0,1,3.6,1c5.41,3.44,10.53,7.23,14,11.23"/></g></g></svg>