<svg xmlns="http://www.w3.org/2000/svg" xmlns:xlink="http://www.w3.org/1999/xlink" viewBox="0 0 75 75"><defs><style>.cls-1,.cls-3{fill:none;}.cls-2{clip-path:url(#clip-path);}.cls-3{stroke:#000;stroke-linecap:round;stroke-miterlimit:10;stroke-width:2.3px;}</style><clipPath id="clip-path"><rect class="cls-1" x="11.85" y="1.94" width="52.34" height="71.11"/></clipPath></defs><title>Icons Template</title><g id="Add_Location" data-name="Add Location"><g id="Male_Female" data-name="Male/Female"><g class="cls-2"><g class="cls-2"><path class="cls-3" d="M43.22,29.8s0,16.24,1.3,17.63"/><path class="cls-3" d="M43.2,29.78c0-8.33,19.47-13.45,20.07.83"/><path class="cls-3" d="M63.27,30.61S64,44.94,62.06,48.24"/><path class="cls-3" d="M44.69,47.78c3,4,17,.92,17,.92"/><line class="cls-3" x1="47.87" y1="49.84" x2="48.02" y2="69.05"/><line class="cls-3" x1="48.02" y1="69.05" x2="43.18" y2="70.52"/><line class="cls-3" x1="58.38" y1="49.84" x2="58.53" y2="69.05"/><line class="cls-3" x1="58.53" y1="69.05" x2="59.98" y2="72.28"/><ellipse class="cls-3" cx="53.68" cy="10.3" rx="8.1" ry="7.58"/><path class="cls-3" d="M18.34,29.63S11.47,55.55,12.8,56.94"/><path class="cls-3" d="M18.34,29.63c2.37-4.82,9-7,10.56,0"/><path class="cls-3" d="M28.91,29.63s8.69,24.76,6.73,28.06"/><path class="cls-3" d="M12.8,56.94c3,4,22.84.74,22.84.74"/><line class="cls-3" x1="18.85" y1="59.27" x2="18.92" y2="67.75"/><line class="cls-3" x1="18.92" y1="67.75" x2="14.08" y2="69.23"/><line class="cls-3" x1="29.36" y1="58.38" x2="29.43" y2="67.75"/><line class="cls-3" x1="29.43" y1="67.75" x2="30.88" y2="70.99"/><path class="cls-3" d="M31.63,13.49a7.85,7.85,0,0,1-8.11,7.58c-4.48,0-7-3.22-7-7.41S22,5.4,26.32,6.41C29.39,7.12,31.63,9.31,31.63,13.49Z"/></g></g></g></g></svg>