<svg xmlns="http://www.w3.org/2000/svg" viewBox="0 0 75 75"><defs><style>.cls-1{fill:none;stroke:#000;stroke-linecap:round;stroke-miterlimit:10;stroke-width:2px;}</style></defs><title>Icons Template</title><g id="Add_Location" data-name="Add Location"><circle class="cls-1" cx="37.44" cy="22.03" r="12.57"/><path class="cls-1" d="M26.91,29.32l-4.28,3.8a.66.66,0,0,0,0,1L26.79,38a.61.61,0,0,0,.94-.14l3-5.15L28.63,38.6a.44.44,0,0,0,.31.58l5.5,1.45a.5.5,0,0,0,.62-.41l.78-5.72v5.79a.53.53,0,0,0,.56.53l6.11-.34a.67.67,0,0,0,.62-.8l-1.19-5.89,2.26,5.7a.54.54,0,0,0,.77.26l5-3a.49.49,0,0,0,.13-.73l-4-4.9,4.59,4.05a.41.41,0,0,0,.61-.07l3.07-4.39a.44.44,0,0,0-.14-.64L49,27l5.4,2.28a.5.5,0,0,0,.69-.38l.95-5.36a.5.5,0,0,0-.4-.57L50.49,22h5.9c.37,0,.36-.45.32-.82L56,16.32c0-.29-.27-.58-.54-.5L50,17.38l4.83-2.27a.55.55,0,0,0,.24-.78L52.48,9.87a.43.43,0,0,0-.63-.12l-4.59,3.52,4-4.14a.85.85,0,0,0-.11-1L46.42,4.63c-.24-.16-.7.33-.84.57l-3.09,5.3L44.7,5a.43.43,0,0,0-.31-.58L37.94,3.11a.42.42,0,0,0-.5.41V9.46l-.76-5.61a.71.71,0,0,0-.84-.6L30.08,4.39a.49.49,0,0,0-.36.67l2.38,5.58"/><polyline class="cls-1" points="32.47 22.46 36.67 25.81 42.32 16.13"/><path class="cls-1" d="M28.21,39.54,23.75,66.18a1.42,1.42,0,0,0,1.14,1.64l13,2.46a1.47,1.47,0,0,0,1.74-1.41l.71-28.05"/><path class="cls-1" d="M39.82,59.72,41.24,71a1.92,1.92,0,0,0,2,1.68l11-2.28a2.11,2.11,0,0,0,1.62-2.58l-8.62-35"/><path class="cls-1" d="M31.49,10.32l-3-4.76a.55.55,0,0,0-.81-.13L23.82,8.59a.81.81,0,0,0,.05,1l3.71,3.85"/><path class="cls-1" d="M27.13,29.21l-4.82,2.64a.77.77,0,0,1-1.12-.32L19,26.87a.7.7,0,0,1,.45-1l5.4-2.2"/><path class="cls-1" d="M26.91,14.22,22.29,10.4a.67.67,0,0,0-1,.22l-1.95,4a.74.74,0,0,0,.38,1l5.18,2.14"/><path class="cls-1" d="M24.87,17.77,19,17.25a.55.55,0,0,0-.69.53V23a.67.67,0,0,0,.73.66h5.86"/></g></svg>