<svg xmlns="http://www.w3.org/2000/svg" viewBox="0 0 75 75"><defs><style>.cls-1{fill:none;stroke:#000;stroke-linecap:round;stroke-miterlimit:10;stroke-width:2px;}</style></defs><title>Icons Template</title><g id="Add_Location" data-name="Add Location"><g id="Diaper"><path class="cls-1" d="M8.33,18.91c-8.61-1.25-6,18,0,18"/><path class="cls-1" d="M66.67,18.91c8.61-1.25,6,18,0,18"/><path class="cls-1" d="M8.33,18.91s17.76,6.54,58.35,0"/><path class="cls-1" d="M17.61,51c-1-13.48-9.29-14-9.29-14l9.29,14C18,63,51.26,65.41,53,53.21L66.67,37A17.53,17.53,0,0,0,53,53.21"/><path class="cls-1" d="M5,21.1a12.19,12.19,0,0,0,6,2.16"/><path class="cls-1" d="M4.08,31.17a12.19,12.19,0,0,0,6,2.16"/><path class="cls-1" d="M11,23.26c2,7.36-.93,10.08-.93,10.08"/><path class="cls-1" d="M69.46,21.79a34.55,34.55,0,0,1-11,2.16"/><path class="cls-1" d="M71.15,31.86a34.55,34.55,0,0,1-11,2.16"/><path class="cls-1" d="M58.48,23.95C54.76,31.31,60.17,34,60.17,34"/></g></g></svg>