<svg xmlns="http://www.w3.org/2000/svg" viewBox="0 0 75 75"><defs><style>.cls-1,.cls-2,.cls-3{fill:none;stroke:#000;stroke-width:3px;}.cls-1,.cls-3{stroke-miterlimit:10;}.cls-2{stroke-linejoin:round;}.cls-3{stroke-linecap:round;}</style></defs><title>Icons Template</title><g id="Add_Location" data-name="Add Location"><rect class="cls-1" x="44.4" y="7.31" width="12.04" height="34.89" rx="1.07" ry="1.07" transform="translate(25.53 -25.59) rotate(37.54)"/><path class="cls-2" d="M35.68,35.43l8.44,6.48a.4.4,0,0,1-.09.68l-9.83,4.06a.4.4,0,0,1-.55-.42L35,35.7A.4.4,0,0,1,35.68,35.43Z"/><path class="cls-3" d="M40.43,18.23H21.52a4.46,4.46,0,0,0-4.46,4.46V56.43a4.46,4.46,0,0,0,4.46,4.46H55.27a4.46,4.46,0,0,0,4.46-4.46V31.88"/></g></svg>