<svg xmlns="http://www.w3.org/2000/svg" viewBox="0 0 75 75"><defs><style>.cls-1,.cls-2{fill:none;stroke:#000;stroke-width:3px;}.cls-1{stroke-miterlimit:10;}.cls-2{stroke-linecap:round;stroke-linejoin:round;}</style></defs><title>Icons Template</title><g id="Add_Location" data-name="Add Location"><rect class="cls-1" x="55.82" y="17.09" width="9.84" height="32.56" rx="3.99" ry="3.99" transform="translate(121.48 66.74) rotate(180)"/><path class="cls-2" d="M13.53,42.11H24.39v.83H13.53a4.13,4.13,0,0,0-4.17,3.59,4,4,0,0,0,4,4.41H42.55s-3.78,9.11-4.78,12.59c-1.77,6.16,6.22,5.85,8,3.1,1.4-2.14,6.68-16.89,6.68-16.89,3.09.75,3.35.35,3.35-.13v-26a7.47,7.47,0,0,0-7.47-7.47H25.72a1.3,1.3,0,0,0-.41.08H20.44a4.15,4.15,0,0,0-4.2,3.62,4,4,0,0,0,4,4.38h4.17v1.33H17.22a4.13,4.13,0,0,0-4.17,3.59,4,4,0,0,0,4,4.41h7.35v.5h-11a4,4,0,0,0-4,4.41A4.13,4.13,0,0,0,13.53,42.11Z"/></g></svg>