<svg xmlns="http://www.w3.org/2000/svg" viewBox="0 0 75 75"><defs><style>.cls-1{fill:none;stroke:#000;stroke-linecap:round;stroke-miterlimit:10;stroke-width:2px;}</style></defs><title>Icons Template</title><g id="Add_Location" data-name="Add Location"><g id="Stroller"><ellipse class="cls-1" cx="14.65" cy="62.21" rx="10.2" ry="9.61"/><ellipse class="cls-1" cx="59.5" cy="62.21" rx="10.2" ry="9.61"/><path class="cls-1" d="M43.21,47.67,59,12.47c2-4.46-2.52-7-7.29-4L12,32.85c-4.07,2.5-5.17,7.16-2,8.58L33.9,52.23C36.83,53.55,41.62,51.21,43.21,47.67Z"/><line class="cls-1" x1="59.5" y1="62.21" x2="49.54" y2="33.56"/><line class="cls-1" x1="14.65" y1="62.51" x2="23.28" y2="47.49"/><path class="cls-1" d="M69.7,9.74C69.88,10.37,76-5.5,52.38,8"/><path class="cls-1" d="M42.88,13.54c-2.34-8-20.09-1.26-12.78,7.73"/><path class="cls-1" d="M15.86,30.21C13.09,26.81,9.65,28.7,11,32.3"/></g></g></svg>