<svg id="Clean" xmlns="http://www.w3.org/2000/svg" viewBox="0 0 75 75"><defs><style>.cls-1,.cls-2{fill:none;stroke:#000;stroke-miterlimit:10;stroke-width:3px;}.cls-1{stroke-linecap:round;}</style></defs><title>Icons Template</title><path class="cls-1" d="M22.67,13.1c0,13.57-10.52,18.13-14.09,19.28a.49.49,0,0,0-.09.9c4.1,2.26,18.29,10.87,14.17,19.47"/><path class="cls-1" d="M23.24,52.75c0-13.57,10.52-18.13,14.09-19.28a.49.49,0,0,0,.09-.9C33.32,30.31,19.13,21.7,23.24,13.1"/><path class="cls-1" d="M48,43.09c0,6.62-6.4,8.84-8.56,9.4a.23.23,0,0,0-.05.44c2.49,1.1,11.12,5.3,8.62,9.49"/><path class="cls-2" d="M48.39,62.42c0-6.62,6.4-8.84,8.56-9.4a.23.23,0,0,0,.05-.44c-2.49-1.1-11.12-5.3-8.62-9.49"/><path class="cls-1" d="M53.6,7.1a12.74,12.74,0,0,1-9.15,12.53.32.32,0,0,0-.06.59c2.66,1.47,11.88,7.06,9.21,12.65"/><path class="cls-1" d="M54,32.86a12.74,12.74,0,0,1,9.15-12.53.32.32,0,0,0,.06-.59C60.51,18.28,51.29,12.69,54,7.1"/></svg>