<svg xmlns="http://www.w3.org/2000/svg" viewBox="0 0 75 75"><defs><style>.cls-1{fill:none;stroke:#000;stroke-linecap:round;stroke-miterlimit:10;stroke-width:2px;}</style></defs><title>Icons Template</title><g id="Add_Location" data-name="Add Location"><g id="Stroller"><ellipse class="cls-1" cx="53.3" cy="54.26" rx="7.05" ry="6.65"/><path class="cls-1" d="M23.44,47.7a5.55,5.55,0,0,0-1.15-.09,6.86,6.86,0,0,0-7.05,6.65,6.31,6.31,0,0,0,.13,1.3"/><path class="cls-1" d="M18,59.4a6.14,6.14,0,0,0,4.25,1.51,6.86,6.86,0,0,0,7.05-6.65A5.68,5.68,0,0,0,27.5,50"/><path class="cls-1" d="M47.61,29.34,55.13,34c2.82,1.73,3.57,4.95,1.39,5.93L40,47.35c-2,.92-5.33-.7-6.43-3.15l-.26-.57"/><path class="cls-1" d="M31.51,39.65,22.63,19.87c-1.38-3.08,1.74-4.81,5-2.78L43.88,27"/><line class="cls-1" x1="25.16" y1="46.01" x2="29.17" y2="34.45"/><line class="cls-1" x1="53.3" y1="54.46" x2="47.33" y2="44.08"/><path class="cls-1" d="M15.24,18c-.13.43-4.37-10.54,12-1.18"/><path class="cls-1" d="M33.78,20.6c1.62-5.55,13.89-.87,8.84,5.35"/><path class="cls-1" d="M52.46,32.13c1.92-2.35,4.3-1,3.33,1.44"/></g><path class="cls-1" d="M10,61.15A36.64,36.64,0,0,1,1.43,37.67,36.07,36.07,0,0,1,37.5,1.6,35.18,35.18,0,0,1,61,10.2"/><path class="cls-1" d="M63.79,13a36.07,36.07,0,0,1-51,51"/><line class="cls-1" x1="61.04" y1="10.2" x2="10.03" y2="61.21"/><line class="cls-1" x1="63.8" y1="12.96" x2="12.79" y2="63.97"/></g></svg>