<svg xmlns="http://www.w3.org/2000/svg" viewBox="0 0 75 75"><defs><style>.cls-1{fill:none;stroke:#000;stroke-miterlimit:10;stroke-width:3px;}</style></defs><title>Icons Template</title><g id="Quite"><path class="cls-1" d="M20.55,24.43a3.44,3.44,0,0,0-3-2.76H6.73c-1.79,0-3.25,2-3.25,4.33V44.46c0,2.38,1.46,4.33,3.25,4.33h10.8a2.9,2.9,0,0,0,2.28-1.26"/><path class="cls-1" d="M35.31,16.16,20.55,24.43A4.28,4.28,0,0,1,20.85,26V44.46a4.32,4.32,0,0,1-1.29,3.08l15,9.13a1.23,1.23,0,0,0,1.87-1l.13-38.72A.85.85,0,0,0,35.31,16.16Z"/><path d="M45.28,49.88,67.88,27.29a1.5,1.5,0,0,0-2.12-2.12L43.16,47.76a1.5,1.5,0,0,0,2.12,2.12Z"/><path d="M67.88,47.76,45.28,25.16a1.5,1.5,0,0,0-2.12,2.12L65.76,49.88a1.5,1.5,0,0,0,2.12-2.12Z"/></g></svg>