<svg xmlns="http://www.w3.org/2000/svg" viewBox="0 0 75 75"><defs><style>.cls-1{fill:none;stroke:#000;stroke-linecap:round;stroke-miterlimit:10;stroke-width:2px;}</style></defs><title>Icons Template</title><g id="Add_Location" data-name="Add Location"><path class="cls-1" d="M23.18,53.89H18.43A10.57,10.57,0,0,1,7.89,43.35V14.19A10.57,10.57,0,0,1,18.43,3.65H36.79A10.57,10.57,0,0,1,47.33,14.19v2.62"/><path class="cls-1" d="M33.71,16.81H52A10.57,10.57,0,0,1,62.53,27.34V60.81A10.57,10.57,0,0,1,52,71.35H33.71A10.57,10.57,0,0,1,23.18,60.81V27.34A10.57,10.57,0,0,1,33.71,16.81Z"/></g></svg>