<svg xmlns="http://www.w3.org/2000/svg" viewBox="0 0 75 75"><defs><style>.cls-1,.cls-2{fill:none;stroke:#000;stroke-width:3px;}.cls-1{stroke-miterlimit:10;}.cls-2{stroke-linecap:round;stroke-linejoin:round;}</style></defs><title>Icons Template</title><g id="Add_Location" data-name="Add Location"><rect class="cls-1" x="3.76" y="23.28" width="9.84" height="32.56" rx="3.99" ry="3.99"/><path class="cls-2" d="M55.88,30.81H45V30H55.88a4.13,4.13,0,0,0,4.17-3.59,4,4,0,0,0-4-4.41H26.86s3.78-9.11,4.78-12.59c1.77-6.16-6.22-5.85-8-3.1C22.23,8.43,17,23.18,17,23.18c-3.09-.75-3.35-.35-3.35.13v26a7.47,7.47,0,0,0,7.47,7.47H43.7a1.3,1.3,0,0,0,.41-.08H49A4.15,4.15,0,0,0,53.18,53a4,4,0,0,0-4-4.38H45V47.31h7.16a4.13,4.13,0,0,0,4.17-3.59,4,4,0,0,0-4-4.41H45v-.5h11a4,4,0,0,0,4-4.41A4.13,4.13,0,0,0,55.88,30.81Z"/></g></svg>