<svg xmlns="http://www.w3.org/2000/svg" viewBox="0 0 75 75"><defs><style>.cls-1{fill:none;stroke:#000;stroke-linecap:round;stroke-miterlimit:10;stroke-width:2px;}</style></defs><title>Icons Template</title><g id="Add_Location" data-name="Add Location"><g id="Family"><path class="cls-1" d="M49.2,29s0,16,1.28,17.38"/><path class="cls-1" d="M49.18,29c0-8.21,19.19-13.26,19.78.82"/><path class="cls-1" d="M69,29.78s.75,14.13-1.19,17.38"/><path class="cls-1" d="M50.65,46.7c3,4,16.8.91,16.8.91"/><line class="cls-1" x1="53.78" y1="48.73" x2="53.93" y2="67.66"/><line class="cls-1" x1="53.93" y1="67.66" x2="49.16" y2="69.11"/><line class="cls-1" x1="64.14" y1="48.73" x2="64.29" y2="67.66"/><line class="cls-1" x1="64.29" y1="67.66" x2="65.72" y2="70.85"/><ellipse class="cls-1" cx="59.51" cy="9.75" rx="7.99" ry="7.47"/><ellipse class="cls-1" cx="13.42" cy="32.23" rx="6.28" ry="5.79"/><path class="cls-1" d="M5.91,45.43s0,10.7,1,11.62"/><path class="cls-1" d="M5.9,45.41c0-5.49,14.41-8.87,14.85.55"/><path class="cls-1" d="M20.75,46s.56,9.45-.89,11.62"/><path class="cls-1" d="M7,57.28c2.24,2.64,12.61.61,12.61.61"/><line class="cls-1" x1="8.66" y1="58.73" x2="8.8" y2="70.08"/><line class="cls-1" x1="17.67" y1="58.63" x2="17.8" y2="69.11"/><path class="cls-1" d="M24.48,27.88s0,16,1.28,17.38"/><path class="cls-1" d="M24.47,27.85c2.34-6.54,18.59-5.29,19.78.82"/><path class="cls-1" d="M44.25,28.67S45,42.8,43.06,46.05"/><path class="cls-1" d="M25.94,45.6c3,4,16.8.91,16.8.91"/><line class="cls-1" x1="29.06" y1="47.63" x2="29.22" y2="66.56"/><line class="cls-1" x1="29.22" y1="66.56" x2="24.45" y2="68.01"/><line class="cls-1" x1="39.42" y1="47.63" x2="39.58" y2="66.56"/><line class="cls-1" x1="39.58" y1="66.56" x2="41" y2="69.74"/><ellipse class="cls-1" cx="33.75" cy="13.07" rx="7.99" ry="7.47"/></g></g></svg>