<svg xmlns="http://www.w3.org/2000/svg" viewBox="0 0 75 75"><defs><style>.cls-1{fill:none;stroke:#000;stroke-miterlimit:10;stroke-width:2px;}</style></defs><title>Icons Template</title><g id="Search"><path d="M16.53,17.93h51a1.5,1.5,0,0,0,0-3h-51a1.5,1.5,0,0,0,0,3Z"/><path d="M16.53,31.62h37a1.5,1.5,0,0,0,0-3h-37a1.5,1.5,0,0,0,0,3Z"/><path d="M15.86,44.71h51a1.5,1.5,0,0,0,0-3h-51a1.5,1.5,0,0,0,0,3Z"/><path d="M15.86,58.4h37a1.5,1.5,0,0,0,0-3h-37a1.5,1.5,0,0,0,0,3Z"/><circle class="cls-1" cx="6.5" cy="16.43" r="3.63"/><circle class="cls-1" cx="6.5" cy="30.12" r="3.63"/><circle class="cls-1" cx="6.5" cy="43.21" r="3.63"/><circle class="cls-1" cx="6.5" cy="56.9" r="3.63"/></g></svg>