<svg xmlns="http://www.w3.org/2000/svg" viewBox="0 0 75 75"><defs><style>.cls-1{fill:none;stroke:#000;stroke-linecap:round;stroke-miterlimit:10;stroke-width:2px;}</style></defs><title>Icons Template</title><g id="Add_Location" data-name="Add Location"><g id="changing_Table" data-name="changing Table"><ellipse class="cls-1" cx="37.94" cy="18.31" rx="7.05" ry="6.5"/><path class="cls-1" d="M54,29.52A4.21,4.21,0,0,1,56,31c1.26,1.75,1.6,3.62-3.29,3.92C44.36,35.48,46,37.9,46,37.9l2.82,15.16a5.92,5.92,0,0,1,.06,1.77c-.27,2.3-1.36,7.4-5.62,1.77a7.41,7.41,0,0,1-1.17-2.36c-3.13-10.53-5-2.92-5.59.33a7.17,7.17,0,0,1-1.24,2.92c-1.47,2-4.18,4.64-6-.48a8.41,8.41,0,0,1-.42-3.19A140.91,140.91,0,0,1,30.08,37.9c.14-4.83-7.13-3.36-7.13-3.36s-5.88.56-4.61-3.45a3.62,3.62,0,0,1,2.44-2C35.57,23.87,50,28.11,54,29.52Z"/><path class="cls-1" d="M29.42,43.7a12.09,12.09,0,0,1,8.08,5.94"/><path class="cls-1" d="M40.05,49.46a9.36,9.36,0,0,1,6.81-5.94"/><path class="cls-1" d="M29.71,41c2.75-.94,5.49-1.93,16.11-.77"/><rect class="cls-1" x="11.99" y="3.31" width="51.03" height="68.1" rx="3.2" ry="3.2"/></g></g></svg>