<svg xmlns="http://www.w3.org/2000/svg" xmlns:xlink="http://www.w3.org/1999/xlink" viewBox="0 0 75 75"><defs><style>.cls-1,.cls-3,.cls-5{fill:none;}.cls-2{clip-path:url(#clip-path);}.cls-3,.cls-5{stroke:#231f20;stroke-miterlimit:10;}.cls-3{stroke-linecap:round;stroke-width:3px;}.cls-4{font-size:23.28px;font-family:Rubik-Light, Rubik;}.cls-5{stroke-width:1.5px;}</style><clipPath id="clip-path"><rect class="cls-1" x="16.11" y="0.33" width="42.56" height="74.34"/></clipPath></defs><title>Icons Template</title><g id="Add_Location" data-name="Add Location"><g id="Paid_Customers_Only" data-name="Paid Customers Only"><g class="cls-2"><g class="cls-2"><path class="cls-3" d="M22.67,41s0,28.2,2.11,30.62"/><path class="cls-3" d="M22.65,40.95c3.81-10.52,30.25-8.51,32.18,1.32"/><path class="cls-3" d="M54.84,41.72S54.3,66.93,50.76,72.5"/><ellipse class="cls-3" cx="37.76" cy="17.19" rx="13" ry="12"/></g><text class="cls-4" transform="translate(29.35 58.24) scale(1.26 1)">$</text><g class="cls-2"><path class="cls-5" d="M37.18,60.06a.45.45,0,0,0,.18.37.74.74,0,0,0,.47.14h.56a.73.73,0,0,0,.47-.14.45.45,0,0,0,.18-.37V58.45a9.4,9.4,0,0,0,4.76-1.32A3.57,3.57,0,0,0,45.5,54a3,3,0,0,0-.69-2,5.39,5.39,0,0,0-2-1.35A28.7,28.7,0,0,0,39,49.46q-2.35-.6-3.55-1a4.87,4.87,0,0,1-1.8-1,2,2,0,0,1-.6-1.5,2.24,2.24,0,0,1,1.33-2.1,7.8,7.8,0,0,1,3.59-.7,7.28,7.28,0,0,1,3.5.76,2.69,2.69,0,0,1,1.57,1.92.43.43,0,0,0,.24.36.9.9,0,0,0,.41.1h.59a.68.68,0,0,0,.45-.14.42.42,0,0,0,.16-.33A3.23,3.23,0,0,0,44.19,44a5.4,5.4,0,0,0-2-1.5A8.89,8.89,0,0,0,39,41.76V40.13a.45.45,0,0,0-.18-.37.74.74,0,0,0-.47-.14h-.56a.74.74,0,0,0-.47.14.45.45,0,0,0-.18.37v1.61a8.11,8.11,0,0,0-4.38,1.32,3.43,3.43,0,0,0-1.57,2.85A3.34,3.34,0,0,0,31.84,48a4.62,4.62,0,0,0,1.89,1.37,24.23,24.23,0,0,0,3.53,1.14q2.55.65,3.81,1.08a5.85,5.85,0,0,1,1.92,1A1.84,1.84,0,0,1,43.66,54a2.49,2.49,0,0,1-1.36,2.25,8.39,8.39,0,0,1-4.15.8,8,8,0,0,1-4-.84,3,3,0,0,1-1.61-2,.59.59,0,0,0-.64-.47h-.59a.68.68,0,0,0-.44.14.41.41,0,0,0-.18.33,3.18,3.18,0,0,0,.84,1.92,5.88,5.88,0,0,0,2.24,1.5,10.68,10.68,0,0,0,3.46.72Z"/></g></g></g></g></svg>