<svg xmlns="http://www.w3.org/2000/svg" viewBox="0 0 75 75"><title>Icons Template</title><g id="Add_Location" data-name="Add Location"><path d="M15.17,29.51C19,14.94,33.13,5.16,48.23,8.22a28.49,28.49,0,0,1,22.6,26A28.48,28.48,0,0,1,51.89,62.53c-13.46,4.67-27.82-1.7-34.45-14-.92-1.7-3.51-.19-2.59,1.51,11.49,21.33,42.81,22.81,55,1.2C81.56,30.43,65.56,3.87,41.65,4.67c-14.21.47-25.8,10.52-29.37,24.05a1.5,1.5,0,0,0,2.89.8Z"/><path d="M36.94,15.05V36.76a1.5,1.5,0,0,0,3,0V15.05a1.5,1.5,0,0,0-3,0Z"/><path d="M60.15,36.69H38.44a1.5,1.5,0,0,0,0,3H60.15a1.5,1.5,0,0,0,0-3Z"/><path d="M7,23l13.89,5.71a1.6,1.6,0,0,1,.37,2.74L9.36,40.61a1.6,1.6,0,0,1-2.56-1.05l-2-14.88A1.6,1.6,0,0,1,7,23Z"/></g></svg>