<svg xmlns="http://www.w3.org/2000/svg" viewBox="0 0 75 75"><defs><style>.cls-1{fill:none;stroke:#000;stroke-miterlimit:10;stroke-width:3px;}</style></defs><title>Icons Template</title><g id="Search"><path d="M39.12,21.08H72a1.5,1.5,0,0,0,0-3H39.12a1.5,1.5,0,0,0,0,3Z"/><path d="M39.12,33.1H63a1.5,1.5,0,0,0,0-3H39.12a1.5,1.5,0,0,0,0,3Z"/><path d="M38.69,44.59h32.9a1.5,1.5,0,0,0,0-3H38.69a1.5,1.5,0,0,0,0,3Z"/><path d="M38.69,56.61H62.57a1.5,1.5,0,0,0,0-3H38.69a1.5,1.5,0,0,0,0,3Z"/><path class="cls-1" d="M32.33,19.11H4a1,1,0,0,0-.88,1.55L14.24,39.32V54.53a.43.43,0,0,0,.42.42h7a.43.43,0,0,0,.42-.42V39.32L33.21,20.66A1,1,0,0,0,32.33,19.11Z"/></g></svg>