<svg xmlns="http://www.w3.org/2000/svg" viewBox="0 0 75 75"><defs><style>.cls-1{fill:none;stroke:#000;stroke-linecap:round;stroke-miterlimit:10;stroke-width:2px;}</style></defs><title>Icons Template</title><g id="Add_Location" data-name="Add Location"><g id="Durable"><path class="cls-1" d="M37.38,3.77C35.62,5,27,10.6,12.71,11.27a.63.63,0,0,0-.62.62V48.64a.56.56,0,0,0,0,.06c.07.73,1.75,14.46,25.4,22.62a.7.7,0,0,0,.43,0c23.7-7.33,25.76-24.18,25.85-25a.56.56,0,0,0,0-.06V11.83a.63.63,0,0,0-.54-.61c-2.89-.46-16.7-2.81-25.16-7.48A.66.66,0,0,0,37.38,3.77Z"/><path class="cls-1" d="M28.7,41l6.2,5.53a.7.7,0,0,0,1-.33L47.34,24.44"/></g></g></svg>