<svg xmlns="http://www.w3.org/2000/svg" viewBox="0 0 75 75"><defs><style>.cls-1{fill:none;stroke:#000;stroke-linecap:round;stroke-miterlimit:10;stroke-width:2px;}</style></defs><title>Icons Template</title><g id="Add_Location" data-name="Add Location"><path class="cls-1" d="M60.66,63.68H13.24a9.35,9.35,0,0,1-9.39-9.31V26.21a9.35,9.35,0,0,1,9.39-9.31H60.66a9.45,9.45,0,0,1,2.84.43,9.68,9.68,0,0,1,3.8,2.29,9.83,9.83,0,0,1,2.75,6.58V54.37A9.35,9.35,0,0,1,60.66,63.68Z"/><ellipse class="cls-1" cx="34.55" cy="40.77" rx="16.08" ry="16.1"/><rect class="cls-1" x="12.55" y="11.32" width="14.12" height="5.58" rx="2.55" ry="2.55"/><rect class="cls-1" x="57.08" y="22.35" width="6.42" height="5.58" rx="2.55" ry="2.55"/></g></svg>